<svg width="194" height="118" viewBox="0 0 194 118" fill="none" xmlns="http://www.w3.org/2000/svg">
<path d="M18.4311 66V47.0909H26.2422C27.6579 47.0909 28.8797 47.3679 29.9077 47.9219C30.9418 48.4697 31.7389 49.236 32.299 50.2209C32.8591 51.1996 33.1392 52.3383 33.1392 53.6371C33.1392 54.942 32.853 56.0838 32.2805 57.0625C31.7143 58.035 30.9048 58.7891 29.8523 59.3246C28.7997 59.8601 27.5502 60.1278 26.1037 60.1278H21.2841V56.527H25.2543C25.9437 56.527 26.5192 56.407 26.9808 56.1669C27.4486 55.9268 27.8026 55.5914 28.0426 55.1605C28.2827 54.7235 28.4027 54.2157 28.4027 53.6371C28.4027 53.0523 28.2827 52.5476 28.0426 52.1229C27.8026 51.692 27.4486 51.3596 26.9808 51.1257C26.513 50.8918 25.9375 50.7749 25.2543 50.7749H23.0014V66H18.4311ZM41.742 66.2678C40.2586 66.2678 38.9783 65.9754 37.9011 65.3906C36.8301 64.7997 36.0053 63.9595 35.4267 62.87C34.8542 61.7744 34.568 60.4725 34.568 58.9645C34.568 57.4995 34.8573 56.2192 35.4359 55.1236C36.0145 54.0218 36.8301 53.1662 37.8826 52.5568C38.9352 51.9413 40.1755 51.6335 41.6035 51.6335C42.613 51.6335 43.5363 51.7905 44.3734 52.1044C45.2105 52.4183 45.9338 52.883 46.5431 53.4986C47.1525 54.1141 47.6265 54.8743 47.965 55.7791C48.3036 56.6778 48.4728 57.7088 48.4728 58.8722V59.9986H36.1468V57.3764H44.2718C44.2657 56.8963 44.1518 56.4685 43.9302 56.093C43.7086 55.7176 43.4039 55.4252 43.0162 55.2159C42.6345 55.0005 42.1944 54.8928 41.6958 54.8928C41.1911 54.8928 40.7387 55.0066 40.3386 55.2344C39.9385 55.456 39.6215 55.7607 39.3876 56.1484C39.1537 56.5301 39.0306 56.964 39.0183 57.4503V60.1186C39.0183 60.6972 39.1322 61.205 39.3599 61.642C39.5877 62.0729 39.9108 62.4084 40.3294 62.6484C40.7479 62.8885 41.2465 63.0085 41.8251 63.0085C42.2252 63.0085 42.5884 62.9531 42.9146 62.8423C43.2408 62.7315 43.5209 62.5684 43.7548 62.353C43.9887 62.1375 44.1641 61.8729 44.2811 61.5589L48.4267 61.679C48.2543 62.6084 47.8758 63.4179 47.291 64.1072C46.7124 64.7905 45.9522 65.3229 45.0105 65.7045C44.0687 66.08 42.9792 66.2678 41.742 66.2678ZM57.408 66.2678C55.9246 66.2678 54.6443 65.9754 53.5671 65.3906C52.4961 64.7997 51.6713 63.9595 51.0927 62.87C50.5202 61.7744 50.234 60.4725 50.234 58.9645C50.234 57.4995 50.5233 56.2192 51.1019 55.1236C51.6805 54.0218 52.4961 53.1662 53.5487 52.5568C54.6012 51.9413 55.8415 51.6335 57.2695 51.6335C58.279 51.6335 59.2023 51.7905 60.0394 52.1044C60.8765 52.4183 61.5998 52.883 62.2092 53.4986C62.8185 54.1141 63.2925 54.8743 63.631 55.7791C63.9696 56.6778 64.1388 57.7088 64.1388 58.8722V59.9986H51.8129V57.3764H59.9379C59.9317 56.8963 59.8178 56.4685 59.5962 56.093C59.3746 55.7176 59.07 55.4252 58.6822 55.2159C58.3005 55.0005 57.8604 54.8928 57.3619 54.8928C56.8571 54.8928 56.4047 55.0066 56.0046 55.2344C55.6045 55.456 55.2875 55.7607 55.0536 56.1484C54.8197 56.5301 54.6966 56.964 54.6843 57.4503V60.1186C54.6843 60.6972 54.7982 61.205 55.0259 61.642C55.2537 62.0729 55.5768 62.4084 55.9954 62.6484C56.4139 62.8885 56.9125 63.0085 57.4911 63.0085C57.8912 63.0085 58.2544 62.9531 58.5806 62.8423C58.9068 62.7315 59.1869 62.5684 59.4208 62.353C59.6547 62.1375 59.8301 61.8729 59.9471 61.5589L64.0927 61.679C63.9203 62.6084 63.5418 63.4179 62.957 64.1072C62.3784 64.7905 61.6183 65.3229 60.6765 65.7045C59.7347 66.08 58.6452 66.2678 57.408 66.2678ZM66.4448 66V51.8182H70.8304V54.4034H70.9782C71.2367 53.4678 71.6583 52.7723 72.2431 52.3168C72.8278 51.8551 73.508 51.6243 74.2836 51.6243C74.4928 51.6243 74.7083 51.6397 74.9299 51.6705C75.1515 51.6951 75.3577 51.7351 75.5485 51.7905V55.7145C75.333 55.6406 75.0499 55.5821 74.699 55.5391C74.3543 55.496 74.0466 55.4744 73.7757 55.4744C73.2402 55.4744 72.757 55.5945 72.3262 55.8345C71.9015 56.0684 71.566 56.3977 71.3198 56.8224C71.0797 57.241 70.9597 57.7334 70.9597 58.2997V66H66.4448ZM77.3512 66V62.7131L84.2482 56.6747C84.7653 56.2069 85.2054 55.7791 85.5685 55.3913C85.9317 54.9974 86.2087 54.6035 86.3995 54.2095C86.5903 53.8094 86.6857 53.3755 86.6857 52.9077C86.6857 52.3845 86.5719 51.9382 86.3441 51.5689C86.1164 51.1934 85.8024 50.9041 85.4023 50.701C85.0022 50.4979 84.5437 50.3963 84.0266 50.3963C83.5034 50.3963 83.0449 50.504 82.6509 50.7195C82.257 50.9287 81.9492 51.2334 81.7276 51.6335C81.5122 52.0336 81.4045 52.5199 81.4045 53.0923H77.0742C77.0742 51.8059 77.3635 50.6948 77.9421 49.7592C78.5207 48.8236 79.3332 48.1035 80.3796 47.5987C81.4322 47.0878 82.654 46.8324 84.0451 46.8324C85.4793 46.8324 86.7257 47.0724 87.7844 47.5526C88.8432 48.0327 89.6618 48.7036 90.2404 49.5653C90.8252 50.4209 91.1175 51.415 91.1175 52.5476C91.1175 53.2678 90.9729 53.9818 90.6836 54.6896C90.3943 55.3975 89.8742 56.1792 89.1232 57.0348C88.3784 57.8904 87.3197 58.9152 85.9471 60.1094L83.685 62.196V62.3161H91.3484V66H77.3512ZM93.9682 66V47.0909H98.5385V62.2884H106.405V66H93.9682ZM115.4 66.2678C113.917 66.2678 112.636 65.9754 111.559 65.3906C110.488 64.7997 109.663 63.9595 109.085 62.87C108.512 61.7744 108.226 60.4725 108.226 58.9645C108.226 57.4995 108.516 56.2192 109.094 55.1236C109.673 54.0218 110.488 53.1662 111.541 52.5568C112.593 51.9413 113.834 51.6335 115.262 51.6335C116.271 51.6335 117.194 51.7905 118.032 52.1044C118.869 52.4183 119.592 52.883 120.201 53.4986C120.811 54.1141 121.285 54.8743 121.623 55.7791C121.962 56.6778 122.131 57.7088 122.131 58.8722V59.9986H109.805V57.3764H117.93C117.924 56.8963 117.81 56.4685 117.588 56.093C117.367 55.7176 117.062 55.4252 116.674 55.2159C116.293 55.0005 115.853 54.8928 115.354 54.8928C114.849 54.8928 114.397 55.0066 113.997 55.2344C113.597 55.456 113.28 55.7607 113.046 56.1484C112.812 56.5301 112.689 56.964 112.676 57.4503V60.1186C112.676 60.6972 112.79 61.205 113.018 61.642C113.246 62.0729 113.569 62.4084 113.988 62.6484C114.406 62.8885 114.905 63.0085 115.483 63.0085C115.883 63.0085 116.247 62.9531 116.573 62.8423C116.899 62.7315 117.179 62.5684 117.413 62.353C117.647 62.1375 117.822 61.8729 117.939 61.5589L122.085 61.679C121.913 62.6084 121.534 63.4179 120.949 64.1072C120.371 64.7905 119.61 65.3229 118.669 65.7045C117.727 66.08 116.637 66.2678 115.4 66.2678ZM128.435 66.2401C127.53 66.2401 126.727 66.0893 126.025 65.7876C125.329 65.4799 124.779 65.0182 124.372 64.4027C123.972 63.781 123.772 63.0024 123.772 62.0668C123.772 61.2789 123.911 60.6141 124.188 60.0724C124.465 59.5308 124.846 59.0907 125.333 58.7521C125.819 58.4136 126.379 58.1581 127.013 57.9858C127.647 57.8073 128.324 57.6873 129.044 57.6257C129.851 57.5518 130.5 57.4749 130.992 57.3949C131.485 57.3087 131.842 57.1887 132.063 57.0348C132.291 56.8748 132.405 56.6501 132.405 56.3608V56.3146C132.405 55.8407 132.242 55.4744 131.916 55.2159C131.589 54.9574 131.149 54.8281 130.595 54.8281C129.998 54.8281 129.518 54.9574 129.155 55.2159C128.792 55.4744 128.561 55.8314 128.463 56.2869L124.298 56.1392C124.422 55.2775 124.739 54.508 125.249 53.831C125.767 53.1477 126.474 52.6122 127.373 52.2244C128.278 51.8305 129.364 51.6335 130.632 51.6335C131.537 51.6335 132.371 51.7412 133.134 51.9567C133.898 52.166 134.562 52.4737 135.129 52.88C135.695 53.2801 136.132 53.7725 136.44 54.3572C136.754 54.942 136.911 55.6098 136.911 56.3608V66H132.664V64.0241H132.553C132.3 64.5043 131.977 64.9105 131.583 65.2429C131.195 65.5753 130.737 65.8246 130.208 65.9908C129.684 66.157 129.093 66.2401 128.435 66.2401ZM129.829 63.2855C130.315 63.2855 130.752 63.187 131.14 62.9901C131.534 62.7931 131.848 62.5223 132.082 62.1776C132.316 61.8267 132.433 61.4205 132.433 60.9588V59.6108C132.303 59.6785 132.146 59.7401 131.962 59.7955C131.783 59.8509 131.586 59.9032 131.371 59.9524C131.155 60.0017 130.934 60.0447 130.706 60.0817C130.478 60.1186 130.26 60.1525 130.051 60.1832C129.626 60.2509 129.263 60.3556 128.961 60.4972C128.666 60.6387 128.438 60.8234 128.278 61.0511C128.124 61.2727 128.047 61.5374 128.047 61.8452C128.047 62.313 128.213 62.67 128.546 62.9162C128.884 63.1624 129.312 63.2855 129.829 63.2855ZM139.671 66V51.8182H144.057V54.4034H144.205C144.463 53.4678 144.885 52.7723 145.47 52.3168C146.054 51.8551 146.735 51.6243 147.51 51.6243C147.719 51.6243 147.935 51.6397 148.156 51.6705C148.378 51.6951 148.584 51.7351 148.775 51.7905V55.7145C148.56 55.6406 148.276 55.5821 147.926 55.5391C147.581 55.496 147.273 55.4744 147.002 55.4744C146.467 55.4744 145.984 55.5945 145.553 55.8345C145.128 56.0684 144.793 56.3977 144.546 56.8224C144.306 57.241 144.186 57.7334 144.186 58.2997V66H139.671ZM155.13 57.9119V66H150.615V51.8182H154.908V54.4219H155.065C155.379 53.554 155.914 52.8738 156.672 52.3814C157.429 51.8828 158.33 51.6335 159.377 51.6335C160.374 51.6335 161.239 51.8582 161.971 52.3075C162.71 52.7507 163.282 53.3724 163.689 54.1726C164.101 54.9666 164.304 55.8961 164.298 56.9609V66H159.783V57.8473C159.789 57.0594 159.589 56.4439 159.183 56.0007C158.783 55.5575 158.226 55.3359 157.512 55.3359C157.038 55.3359 156.619 55.4406 156.256 55.6499C155.899 55.853 155.622 56.1454 155.425 56.527C155.234 56.9086 155.136 57.3703 155.13 57.9119Z" fill="#E9E9E9"/>
<path d="M7.63513 36.743L7.00495 35.3818L7.00495 35.3818L7.63513 36.743ZM167.861 33.3218L168.432 31.9349L168.432 31.9349L167.861 33.3218ZM178.577 38.8848C179.341 38.5664 179.703 37.6882 179.385 36.9235L174.196 24.4605C173.877 23.6957 172.999 23.3338 172.235 23.6523C171.47 23.9707 171.108 24.8488 171.426 25.6136L176.039 36.6918L164.96 41.3041C164.196 41.6225 163.834 42.5006 164.152 43.2654C164.471 44.0302 165.349 44.3921 166.114 44.0736L178.577 38.8848ZM6.63019 38.8612L8.26532 38.1042L7.00495 35.3818L5.36981 36.1388L6.63019 38.8612ZM167.289 34.7087L177.428 38.8869L178.572 36.1131L168.432 31.9349L167.289 34.7087ZM8.26532 38.1042C58.4827 14.8554 116.125 13.6246 167.289 34.7087L168.432 31.9349C116.495 10.5322 57.9813 11.7816 7.00495 35.3818L8.26532 38.1042Z" fill="#E9E9E9"/>
<path d="M171.53 81.9261L170.928 80.5523L170.928 80.5523L171.53 81.9261ZM13.3202 82.9401L12.7358 84.3215L12.7358 84.3215L13.3202 82.9401ZM1.08008 76.6099C0.31234 76.9211 -0.0577192 77.7958 0.253526 78.5635L5.32555 91.0745C5.6368 91.8423 6.51148 92.2123 7.27922 91.9011C8.04696 91.5898 8.41701 90.7151 8.10577 89.9474L3.5973 78.8265L14.7182 74.3181C15.4859 74.0068 15.856 73.1321 15.5447 72.3644C15.2335 71.5967 14.3588 71.2266 13.5911 71.5378L1.08008 76.6099ZM173.042 79.6261L170.928 80.5523L172.133 83.3L174.246 82.3738L173.042 79.6261ZM13.9047 81.5586L2.22809 76.6185L1.05918 79.3814L12.7358 84.3215L13.9047 81.5586ZM170.928 80.5523C120.95 102.456 64.1593 102.82 13.9047 81.5586L12.7358 84.3215C63.7499 105.904 121.399 105.535 172.133 83.3L170.928 80.5523Z" fill="#E9E9E9"/>
</svg>
